<svg width="549" height="200" viewBox="0 0 549 200" fill="none" xmlns="http://www.w3.org/2000/svg">
<path d="M428 36C581.616 30.357 548.1 75.8215 500 96.7188M428 36V186C372.757 156.787 311.512 122.53 262.687 91.9211M428 36C363.631 57.9613 309.01 76.4129 262.687 91.9211M500 96.7188C471.386 109.15 437.611 112.888 435 92C507.128 92 386.801 52.4349 441 74.3993M500 96.7188C470.769 86.0725 452.175 78.928 441 74.3993M441 74.3993C94.105 -40.8868 137.696 13.5625 262.687 91.9211M262.687 91.9211C3.16057 178.806 4.06018 173.303 9.99998 175C415 186 227.374 -2.15775 262.687 91.9211Z" stroke="#DB4747" stroke-width="16"/>
</svg>
